<?xml version="1.0" encoding="utf-8"?>
<!-- Generator: Adobe Illustrator 26.0.1, SVG Export Plug-In . SVG Version: 6.00 Build 0)  -->
<svg version="1.1" id="Layer_1" xmlns="http://www.w3.org/2000/svg" xmlns:xlink="http://www.w3.org/1999/xlink" x="0px" y="0px"
	 viewBox="0 0 841.89 447.34" style="enable-background:new 0 0 841.89 447.34;" xml:space="preserve">
<style type="text/css">
	.st0{fill:#3F2564;}
	.st1{fill:#46225E;}
	.st2{fill:#E2B88D;}
	.st3{fill:#FFFEFE;}
	.st4{fill:#4A2464;}
	.st5{fill:#D2A734;}
</style>
<g>
	<g>
		<path class="st0" d="M544.53,185.73c0,0,27.63-36.04,51.47-41.86c0,0-0.83,39.37,25.78,41.86c26.61,2.5,35.76-11.37,41.31-20.93
			l1.94-18.71c0,0,15.25,4.71,24.12,4.71c0,0-1.66,28.28-44.08,41.03c0,0-24.4,6.38-56.55-9.43c0,0-24.67-9.98-35.76,5.27
			c0,0,27.72-1.66,39.37,7.49c0,0,33.77,12.48,44.33,7.21l13.05,11.27l-2.77-11c0,0,5.82-3.33,8.04,1.11l12.75,6.65l-4.71-13.58
			l6.65-0.28l17.47,8.87l-9.98-16.36c0,0-0.28-8.04,6.93-1.94c0,0,11.09,8.59,21.62,5.27c0,0-16.08-8.32-16.91-16.63
			c0,0,23.56,8.5,26.34,3c0,0-14.97-6.88-18.3-13.82l28.83-2.22l-25.51-9.98c0,0-1.94-4.99,3.6-5.54s26.89-19.41,26.06-30.22
			c0,0,7.49-6.65,9.43,30.5c0,0,5.19,4.44,6.2-9.15s-0.1-36.04-14.52-47.96c0,0-1.94-4.16,2.77-5.82c0,0-6.86-14.14-12.58-2.5
			c0,0-1.28,3.88,3.71,7.21c0,0,5.51,14.6-2.21,17.62c-0.45,0.18-0.95,0.31-1.49,0.4c-9.88,1.66-30.67,23.84-30.67,23.84
			s-4.16,6.65-39.09,1.39c0,0-55.76-16.22-89.63,24.67C561.53,157.18,540.19,180.74,544.53,185.73z"/>
		<g>
			<g>
				<g>
					<g>
						<g>
							<path class="st1" d="M36.37,286.09c0,0,23.1,37.15,64.13-7.58c0,0,25.51-33.82,43.43-69.68s32.53-48.24,32.53-48.24
								s12.2-2.4,10.17,9.43c0,0-21.99,61.73-18.67,97.49c0,0,40.48-86.22,67.64-105.07c0,0,11.92-5.27,11.92,5.27
								c0,0-34.65,81.78-33.54,135.56c0,0-10.26,6.93-16.36-1.94c0,0,9.43-75.68,26.34-114.22c0,0-39.37,64.04-61.27,107.84
								c0,0-10.81,4.16-9.7-9.98c0,0,1.39-66.81,13.86-97.58l-52.12,90.93c0,0-21.81,32.16-48.42,32.9
								C39.69,311.97,28.6,294.59,36.37,286.09z"/>
						</g>
						<g>
							<g>
								<path class="st1" d="M296.78,263.54l-2.63,2.7l-13.08,13.38c0,0-3.71,2.58-4.07-2.4l1.29-12.02l16.63-40.73
									c0,0-4.99-7.52-19.23-7.52c0,0-43.05,2.6-46.76,55.82c0,0,1.67,28.65,26.07,11.65l10.53-9.24c0,0-2.03,20.88,14.6,12.74
									l12.95-14.34c0,0,0,0,0-0.01l5.91-6.52L296.78,263.54z M250.94,281.29c-14.6,5.18-5.73-25.32-5.73-25.32
									c12.02-36.41,34.37-31.23,34.37-31.23c1.48,1.29,1.48,4.44,1.48,4.44C275.33,262.06,250.94,281.29,250.94,281.29z"/>
							</g>
						</g>
						<g>
							<g>
								<path class="st1" d="M326.81,314.92c0,0-0.51-0.05-1.47-0.13l30.86-86.36c0,0,2.77-12.39-14.7-11.47
									c0,0-33.08-2.58-45.83,43.07c-0.63,2.22-1.12,4.3-1.52,6.21c-0.56,2.75-0.91,5.18-1.06,7.34c0,0.01,0,0.01,0,0.01
									c-1.92,27.25,26.79,10.47,26.79,10.47l7.94-6.47l-14.97,35.49c0,0-0.15,0.42-0.43,1.21c-20.54-0.18-59.19,2.22-89.57,20.03
									c-43.51,25.5-49.06,67.09-36.32,87.6c12.76,20.52,50.19,15.8,66.82,5c16.63-10.81,50.17-53.23,68.48-102.3l0.93-2.62
									c27.73,2.35,48.82,8.1,101.35,18.05l0,0c0-7.47-5.45-13.82-12.84-14.96C375.76,319.61,335.08,313.86,326.81,314.92z
									 M320.34,273.71c-11.93,14.23-13.4,3.32-13.4,3.32c0.18-37.28,26.79-52.55,26.79-52.55c10.16-1.18,8.13,1.36,9.06,6.72
									C343.72,236.56,332.26,259.48,320.34,273.71z M255.56,409.18c-36.32,36.32-57.93,9.42-57.93,9.42s-13.86-17.46-3.6-37.7
									c10.25-20.25,43.8-59.06,113.11-60.16c0,0,0.93,0.06,2.71,0.2C302.82,338.38,283.85,380.89,255.56,409.18z"/>
							</g>
						</g>
						<g>
							<path class="st1" d="M371.17,220.11l-23.01,65.98c0,0,1.94,9.7,13.58,0c0,0,15.8-45.19,39.09-58.5c0,0,5.82-2.5-1.94,14.14
								c-7.76,16.63-20.79,44.33-6.65,48.08c0,0,12.2,0.71,24.95-19.81l6.91-10.26l-4.97-0.55c0,0-13.03,18.98-20.79,21.83
								c-7.76,2.85,7.21-25.77,7.21-25.77s14.42-28.77,7.49-33.21c-6.93-4.44-18.85-2.12-31.05,13.77l-9.15,12.84l10.53-24.47
								C383.36,224.19,380.31,216.51,371.17,220.11z"/>
						</g>
						<g>
							<path class="st1" d="M662.04,219.17l-25.6,65.98c0,0,2.16,9.7,15.11,0c0,0,17.58-45.19,43.48-58.5c0,0,6.48-2.5-2.16,14.14
								c-8.63,16.63-23.13,44.33-7.4,48.08c0,0,13.57,0.71,27.75-19.81l7.69-10.26l-5.53-0.55c0,0-14.49,18.98-23.13,21.83
								c-8.63,2.85,8.02-25.77,8.02-25.77s16.04-28.77,8.33-33.21c-7.71-4.44-20.97-2.12-34.54,13.77l-10.18,12.84l11.72-24.47
								C675.61,223.25,672.22,215.56,662.04,219.17z"/>
						</g>
						<g>
							<path class="st1" d="M437.15,219.15c0,0-28.83,47.26-18.3,68.05c0,0,9.43,6.65,21.07-9.98l23.01-24.61l-4.71-2.74
								l-29.39,31.15c0,0-3.33-1.04,1.11-15.73c0,0,9.52-28.55,15.16-36.32C445.09,228.98,449.9,219.3,437.15,219.15z"/>
						</g>
						<g>
							<path class="st1" d="M517.66,219.15c0,0-30.05,49.26-19.07,70.93c0,0,9.82,6.94,21.96-10.4l23.98-25.65l-4.91-2.85
								l-30.63,32.47c0,0-3.47-1.08,1.16-16.39c0,0,9.92-29.76,15.8-37.85C525.94,229.4,530.95,219.3,517.66,219.15z"/>
						</g>
						<g>
							<path class="st1" d="M452.12,221.5v2.98c0,0,22.73,5.34,44.36-11.02c21.62-16.36,32.16-45.19,32.16-45.19
								s4.71-23.84-14.69-18.85c-19.41,4.99-31.88,23.29-43.8,65.98l-25.04,69.86c0,0-6.56,22.73,7.58,23.29
								c9.72,0.38,15.9-9.76,19.97-17.16c0.19-0.35,0.4-0.7,0.59-1.06c1.86-3.43,3.53-7.3,3.91-11.22c0.42-4.36-0.09-8.7-0.99-12.98
								c-0.99-4.74-2.43-9.43-5.27-13.42c-0.21-0.29-3.32-3.18-3.28-3.25c0,0-4.68,11.68-4.68,11.68s15.52,3.36,2.77,29.26
								s-14.97,0.68-11.92-4.87l21.07-54.06c0,0,19.96-64.04,37.98-75.41c0,0,18.3-1.66,3.6,21.9
								C501.74,201.54,493.98,219.56,452.12,221.5z"/>
						</g>
						<g>
							<circle class="st1" cx="446.99" cy="198.07" r="9.01"/>
						</g>
						<g>
							<circle class="st1" cx="527.66" cy="198.07" r="9.01"/>
						</g>
						<g>
							<path class="st1" d="M517.66,219.15c0,0-30.09,27.18-50.05,30.31l3.27,5.84c0,0,28.76-7.23,40.53-24.82L517.66,219.15z"/>
						</g>
						<g>
							<path class="st1" d="M573.08,237.22c0,0-1.02,4.51,1.02,5.9c2.03,1.39,9.8-2.86,12.57-8.78c2.77-5.91-0.46-22.73-22.36-17.19
								c-21.9,5.54-41.86,41.95-32.44,64.69c9.43,22.73,40.84-3.33,40.84-3.33l20.88-21.99l-3.33-3.88c0,0-26.43,28.65-34.93,28.83
								c-8.5,0.18-15.89-1.48-13.49-21.25c2.4-19.78,24.3-44.73,34.56-35.3S573.08,237.22,573.08,237.22z"/>
						</g>
						<g>
							<g>
								<path class="st1" d="M649.23,252.19l-25.52,25.03c0,0-17.96,14.76-24.57-2.4c0,0-2.97-10.16,0-14.97l17.37-0.37
									c0,0,21.25-7.03,27.16-25.13c0,0,2.4-25.6-24.21-17.42c0,0-27.08,11.08-32.84,39.54c0,0.01,0,0.01,0,0.03
									c-0.55,2.65-0.89,5.46-1.01,8.42c-0.17,3.57,0.01,7.35,0.58,11.38c0,0,9.8,24.95,33.27,9.43c0,0,10.61-5.48,23.88-18.37
									c3.25-3.16,6.67-6.76,10.12-10.84L649.23,252.19z M622.99,222.33c12.2-3.52,10.53,8.5,10.53,8.5
									c-2.16,14.14-17.37,21.25-17.37,21.25h-13.13C602.47,237.85,622.99,222.33,622.99,222.33z"/>
							</g>
						</g>
						<g>
							<path class="st1" d="M762.7,177.42c0,0,7.58,0.55,3.14,13.12l-31.05,67.09c0,0-8.87,23.84,10.72,25.51
								c0,0,12.21-1.66,21.72-19.41c0,0,7.48-2.03,3.23,5.91c0,0-13.12,21.57-28.09,21.51c0,0-26.06,5.66-23.47-21.88
								c0,0-0.18-8.87,6.28-20.88l26.61-60.99C751.8,187.4,758.64,177.97,762.7,177.42z"/>
						</g>
					</g>
					<g>
						<rect x="718.72" y="211.98" class="st1" width="60.99" height="3.33"/>
					</g>
				</g>
			</g>
			<path class="st1" d="M529.47,100.35c0,0-4.72,16.63,12.75,10.81c0,0,92.87-72.08,171.33-19.68c0,0,6.65-1.39,1.39-9.43
				c0,0-48.79-61.82-122.53-26.06C592.39,55.99,557.2,67.36,529.47,100.35z"/>
			<path class="st2" d="M550.95,173.26c0,0,33.96-52.4,95.51-38.53c0,0,38.95,10.95,51.84-0.83l-8.04-10.81
				c0,0-58.22-29.8-93.29-8.32C596.97,114.76,550.81,141.65,550.95,173.26z"/>
			<circle class="st3" cx="640.91" cy="150.99" r="7.58"/>
			<path class="st2" d="M611.52,160.23c0,0,9.15,19.13,26.06,14.97c-0.38,0.1-0.8,1.16-1.04,1.48c-0.49,0.64-1.06,1.22-1.7,1.72
				c-1.23,0.97-2.7,1.64-4.25,1.91c-2.62,0.45-5.34-0.25-7.71-1.45c-2.9-1.48-5.72-3.65-8.03-5.94c-2.2-2.17-4.12-4.82-4.74-7.9
				C609.78,163.33,610.09,161.33,611.52,160.23z"/>
			<path class="st4" d="M552.75,162.72c0,0,41.03-89.82,135.29-34.38c0,0,19.68,0.83,34.38-12.48l-3.69-5.6
				c0,0-16.55,5.6-33.46-2.72s-78.46-33.54-119.49,26.06C565.78,133.61,555.25,148.59,552.75,162.72z"/>
			<path class="st0" d="M703.42,41.44c0,0-8.73-3.6-6.24,6.24c0,0,16.22,4.79,23.98,30.95C721.17,78.63,724.35,58.21,703.42,41.44z"
				/>
			<path class="st0" d="M717.22,31.36c0,0-7.73-5.43-7.45,4.72c0,0,14.77,8.23,16.62,35.45C726.39,71.53,733.97,52.31,717.22,31.36z
				"/>
			<path class="st5" d="M788.95,90.92c12.37-2.21,13.68-15.52,13.68-15.52c-3.14-26.61,0-62.29,0-62.29
				c-6.11-18.47-38.08,13.87-38.08,13.87c-15.95,13.38-26.56,42.66-31.11,57.44v0.01c-0.01,0.05-0.03,0.1-0.04,0.15
				c-0.84,2.74-1.47,4.96-1.88,6.48c-0.4,1.46-0.6,2.26-0.6,2.26l14.33,31.97l0.11,0.18v0.01l0.01,0.01l16.4,24.75
				c0,0,33.45,23.47,43.81-15.52C815.94,95.72,788.95,90.92,788.95,90.92z M789.13,105.15c0,0-7.36,4.81-17.36,0
				c-10-4.79-10.18-8.31-10.18-8.31H781C781,96.84,790.05,99.98,789.13,105.15z M760.49,93.04h-11.45l1.84-1.93
				c0,0,13.31-31.98,38.26-25.32C814.09,72.43,760.49,93.04,760.49,93.04z M789.13,55.25c0,0-8.33,10.53-18.68,10.53
				c-10.34,0,5.93-15.07,5.93-15.07S787.84,44.53,789.13,55.25z M779.15,27.9c0,0,12.58,0.74,4.44,11.82c-8.13,11.1-14.15,0-14.15,0
				S772.5,30.3,779.15,27.9z M765.66,41.95c7.76,2.95,3.77,13.12,3.77,13.12s-17.08,30.68-24.19,35.86
				c-7.11,5.18-8.04-0.74-8.04-0.74C739.97,73.17,765.66,41.95,765.66,41.95z M746.63,115.13c0,0,25.29,18.56,25.76,31.37
				C772.87,159.31,742,120.86,746.63,115.13z M774.16,132.32c0,0-8.32,1.84-31.79-32.53h16.64
				C759.01,99.79,777.12,111.63,774.16,132.32z M787.39,145.54c-10.06,4.73-9.91-9.72-9.91-9.72
				C790.42,131.21,787.39,145.54,787.39,145.54z M795.75,132.34c-16.3,5.56-22.33-21.08-22.33-21.08l14.24-1.67
				C787.66,109.58,812.05,126.78,795.75,132.34z"/>
		</g>
	</g>
	<g>
		<g>
			<path class="st1" d="M449.89,348.26v26.5h-8.97v-61.22h24.49c12.73,0,19.52,6.92,19.52,16.46c0,8.01-4.55,12.76-10.15,14.42
				c4.62,1.3,9.02,4.92,9.02,15.61v2.7c0,4.2-0.15,9.42,0.83,12.04h-8.77c-1.11-2.64-1.08-7.38-1.08-13.27v-1.23
				c0-8.33-2.32-12-13.09-12H449.89z M449.89,340.72h12.89c8.96,0,12.82-3.37,12.82-9.92c0-6.22-4.05-9.74-12.02-9.74h-13.69V340.72
				z"/>
			<path class="st1" d="M503.79,353.97c0.05,8.45,4.3,14.74,11.64,14.74c6.72,0,8.86-3.35,10.25-6.52h8.7
				c-1.73,5.7-6.56,13.63-19.21,13.63c-14.24,0-20.12-11.39-20.12-22.98c0-13.49,6.82-24.01,20.61-24.01
				c14.66,0,19.5,11.52,19.5,21.41c0,1.39,0,2.51-0.13,3.73H503.79z M526.4,348.09c-0.09-6.96-3.49-12.6-10.84-12.6
				c-7.52,0-10.78,5.22-11.51,12.6H526.4z"/>
			<path class="st1" d="M541.39,329.88h7.6v-13.03h8.65v13.03h9.69v6.91h-9.69v25.48c0,4.18,1.06,6.24,5.05,6.24
				c1,0,2.53-0.05,3.7-0.33v6.36c-2.02,0.74-4.82,0.83-7.03,0.83c-7.32,0-10.38-3.82-10.38-11.35v-27.23h-7.6V329.88z"/>
			<path class="st1" d="M576.85,342.07c0-5.92-0.05-9.54-0.09-12.19h8.49c0.13,1.21,0.26,4.91,0.26,8.91
				c2.28-5.89,7.52-9.78,14.98-9.97v8.53c-9.17,0.18-14.98,4.52-14.98,16.05v21.36h-8.65V342.07z"/>
			<path class="st1" d="M615.3,353.97c0.05,8.45,4.3,14.74,11.64,14.74c6.72,0,8.86-3.35,10.25-6.52h8.7
				c-1.73,5.7-6.56,13.63-19.21,13.63c-14.24,0-20.12-11.39-20.12-22.98c0-13.49,6.82-24.01,20.61-24.01
				c14.66,0,19.5,11.52,19.5,21.41c0,1.39,0,2.51-0.13,3.73H615.3z M637.91,348.09c-0.09-6.96-3.49-12.6-10.84-12.6
				c-7.52,0-10.78,5.22-11.51,12.6H637.91z"/>
			<path class="st1" d="M692.19,364.62c0,4.12,0.35,8.89,0.62,10.14h-8.28c-0.35-0.98-0.62-3.16-0.71-5.59
				c-1.58,2.9-5.06,6.64-13.61,6.64c-10.63,0-15.15-6.93-15.15-13.78c0-10.06,7.93-14.66,21.24-14.66c2.94,0,5.77,0,7.41,0v-3.61
				c0-3.81-1.24-8.31-9.13-8.31c-7.06,0-8.3,3.43-9.07,6.88h-8.33c0.61-6.53,4.65-13.54,17.69-13.5
				c11.17,0.04,17.33,4.55,17.33,14.85V364.62z M683.75,353.16c-1.35,0-4.57,0-6.84,0c-8.66,0-13.06,2.44-13.06,8.37
				c0,4.39,2.96,7.66,8.29,7.66c10.24,0,11.6-6.93,11.6-14.65V353.16z"/>
			<path class="st1" d="M700.67,329.88h7.6v-13.03h8.65v13.03h9.69v6.91h-9.69v25.48c0,4.18,1.06,6.24,5.05,6.24
				c1,0,2.53-0.05,3.7-0.33v6.36c-2.02,0.74-4.82,0.83-7.03,0.83c-7.32,0-10.38-3.82-10.38-11.35v-27.23h-7.6V329.88z"/>
		</g>
	</g>
</g>
</svg>
